<svg xmlns="http://www.w3.org/2000/svg" xmlns:xlink="http://www.w3.org/1999/xlink" width="244.768" height="221.311" viewBox="0 0 244.768 221.311">
  <defs>
    <linearGradient id="linear-gradient" x1="0.5" x2="0.5" y2="1" gradientUnits="objectBoundingBox">
      <stop offset="0" stop-color="#c9aa40"/>
      <stop offset="1" stop-color="#655520"/>
    </linearGradient>
    <clipPath id="clip-path">
      <rect id="Rectangle_456" data-name="Rectangle 456" width="244.768" height="221.31" fill="url(#linear-gradient)"/>
    </clipPath>
  </defs>
  <g id="Group_473" data-name="Group 473" transform="translate(-912 -7107)">
    <text id="Cityscape_Global_Awards_2013_Dubai" data-name="Cityscape Global 
Awards, 2013, Dubai" transform="translate(1039.884 7160.655)" fill="#1e3445" font-size="14" font-family="Avenir-Medium, Avenir" font-weight="500"><tspan x="-55" y="0">Cityscape Global </tspan><tspan x="-65" y="21">Awards, 2013, Dubai</tspan></text>
    <text id="Best_Residential_Project_-_Future" data-name="Best Residential
Project - Future" transform="translate(1039.884 7231.655)" fill="#1e3445" font-size="14" font-family="Avenir-Medium, Avenir" font-weight="500"><tspan x="-50" y="0">Best Residential</tspan><tspan x="-49" y="21">Project - Future</tspan></text>
    <g id="Group_399" data-name="Group 399" transform="translate(912 7107)">
      <g id="Group_398" data-name="Group 398" clip-path="url(#clip-path)">
        <path id="Path_64180" data-name="Path 64180" d="M91.694,198.693c-5.315,1.98-10.293,6.135-11.928,10.984a22.666,22.666,0,0,0,16.445,1.142c4.633-1.725,8.493-5.247,9.859-9.626a45.87,45.87,0,0,1-18.788,6.048,43.419,43.419,0,0,0,4.653-1.058,46.425,46.425,0,0,0,13.49-6.657,17.612,17.612,0,0,0-8.054-1.737,16.6,16.6,0,0,0-5.677.905m47.649.832a46.383,46.383,0,0,0,13.49,6.657,43.388,43.388,0,0,0,4.651,1.058,45.863,45.863,0,0,1-18.786-6.048c1.366,4.379,5.227,7.9,9.859,9.626A22.667,22.667,0,0,0,165,209.677c-1.635-4.849-6.613-9-11.928-10.984a16.6,16.6,0,0,0-5.677-.905,17.612,17.612,0,0,0-8.054,1.737M62.014,184.4c-5.449.584-11.111,3.243-13.811,7.314a22.106,22.106,0,0,0,15.115,4.871c4.755-.507,9.216-2.846,11.55-6.548a45.221,45.221,0,0,1-19.041,1.188,42.084,42.084,0,0,0,4.609.111,45.8,45.8,0,0,0,14.23-2.979c-2.312-2.157-7.219-4.022-11.348-4.022a12.108,12.108,0,0,0-1.3.066M170.1,188.357a45.813,45.813,0,0,0,14.232,2.979,42.1,42.1,0,0,0,4.609-.111,45.219,45.219,0,0,1-19.041-1.188c2.334,3.7,6.8,6.041,11.549,6.548a22.1,22.1,0,0,0,15.115-4.871c-2.7-4.071-8.36-6.731-13.811-7.314a12.107,12.107,0,0,0-1.3-.066c-4.129,0-9.036,1.865-11.348,4.022M87.9,176.005c-.412,5.038,2.489,10.824,6.547,14.785,3.233,3.159,9.2,5.184,12.813,4.881a47.313,47.313,0,0,0-9.66-11.528,43.729,43.729,0,0,0-3.818-2.858,46.772,46.772,0,0,1,14.717,13.15c.475-4.505-1.657-9.257-5.2-12.712a23.082,23.082,0,0,0-14.575-5.739c-.279,0-.555.009-.827.022m53.562,5.716c-3.539,3.455-5.669,8.207-5.2,12.712a46.791,46.791,0,0,1,14.717-13.15,43.961,43.961,0,0,0-3.816,2.858,47.312,47.312,0,0,0-9.66,11.528c3.61.3,9.58-1.722,12.813-4.881,4.058-3.961,6.957-9.747,6.545-14.785-.272-.014-.548-.022-.827-.022a23.086,23.086,0,0,0-14.575,5.739M24.036,167.839a21.35,21.35,0,0,0,13.073,8.012c4.577.606,9.294-.57,12.328-3.513A43.686,43.686,0,0,1,31.3,169.115a41.712,41.712,0,0,0,4.3,1.154,44.181,44.181,0,0,0,14.031.444c-1.86-2.823-6.787-6.038-10.969-6.591a22.279,22.279,0,0,0-2.909-.191c-4.408,0-8.884,1.285-11.717,3.908m182.069-3.717c-4.182.553-9.109,3.768-10.97,6.591a44.192,44.192,0,0,0,14.033-.444,41.566,41.566,0,0,0,4.3-1.154,43.681,43.681,0,0,1-18.136,3.222c3.035,2.943,7.753,4.119,12.328,3.513a21.358,21.358,0,0,0,13.075-8.012c-2.833-2.623-7.309-3.908-11.717-3.908a21.988,21.988,0,0,0-2.909.191M69.151,178.443c2.208,3.768,7.256,7.181,10.7,7.823a45.789,45.789,0,0,0-6.062-13.216,42.583,42.583,0,0,0-2.828-3.639,45.223,45.223,0,0,1,10.361,16.018c1.591-4.078.82-9.055-1.6-13.179a22.1,22.1,0,0,0-12.9-9.262c-1.671,4.592-.444,10.724,2.326,15.455m95.891-6.193c-2.416,4.124-3.188,9.1-1.6,13.179a45.224,45.224,0,0,1,10.361-16.018,42.583,42.583,0,0,0-2.828,3.639,45.7,45.7,0,0,0-6.062,13.216c3.444-.641,8.49-4.054,10.7-7.823,2.771-4.731,4-10.863,2.326-15.455a22.106,22.106,0,0,0-12.9,9.262M48.452,159.181c.961,4.109,4.645,8.7,7.637,10.269a44.17,44.17,0,0,0-1.822-13.919,41.025,41.025,0,0,0-1.57-4.165,43.656,43.656,0,0,1,4.99,17.731c2.63-3.309,3.338-8.12,2.283-12.615a21.337,21.337,0,0,0-9.259-12.219c-2.85,3.758-3.467,9.766-2.259,14.917m136.344-2.7c-1.053,4.495-.347,9.306,2.283,12.615a43.685,43.685,0,0,1,4.992-17.731,40.629,40.629,0,0,0-1.57,4.165,44.123,44.123,0,0,0-1.824,13.919c2.993-1.574,6.676-6.161,7.639-10.269,1.206-5.152.59-11.159-2.261-14.917a21.345,21.345,0,0,0-9.259,12.219M11.3,140.308a20.569,20.569,0,0,0,9.357,11.447c3.973,2.006,8.643,2.435,12.338.718a42.116,42.116,0,0,1-15.487-8.7,39.847,39.847,0,0,0,3.549,2.416,42.58,42.58,0,0,0,12.631,4.864c-.795-3.163-4.26-7.654-7.893-9.487a20.951,20.951,0,0,0-9.206-2.27,13.259,13.259,0,0,0-5.289,1.007m207.671,1.262c-3.631,1.832-7.1,6.324-7.893,9.487a42.607,42.607,0,0,0,12.632-4.864,39.82,39.82,0,0,0,3.547-2.416,42.1,42.1,0,0,1-15.487,8.7c3.7,1.717,8.366,1.288,12.34-.718a20.583,20.583,0,0,0,9.357-11.447,13.259,13.259,0,0,0-5.289-1.007,20.964,20.964,0,0,0-9.208,2.27M34.2,139.5c.2,4.061,2.9,9.051,5.473,11.059a42.573,42.573,0,0,0,.674-13.519,39.913,39.913,0,0,0-.769-4.221A42.128,42.128,0,0,1,41.244,150.5c3.068-2.685,4.568-7.125,4.347-11.571a20.591,20.591,0,0,0-6.674-13.194C35.563,128.808,33.94,134.4,34.2,139.5m164.982-.57c-.221,4.446,1.279,8.886,4.345,11.571a42.156,42.156,0,0,1,1.672-17.682,39.925,39.925,0,0,0-.771,4.221,42.673,42.673,0,0,0,.674,13.519c2.571-2.008,5.271-7,5.475-11.059.253-5.1-1.37-10.69-4.723-13.764a20.58,20.58,0,0,0-6.673,13.194M2.705,115.4a19.824,19.824,0,0,0,7.283,12.234c3.5,2.475,7.884,3.549,11.649,2.44A40.573,40.573,0,0,1,8.124,119.589a38.808,38.808,0,0,0,3.035,2.806A41,41,0,0,0,22.5,128.824c-.306-3.125-2.969-7.9-6.167-10.157a19.258,19.258,0,0,0-10.64-3.641,11.554,11.554,0,0,0-2.986.374m225.729,3.267c-3.2,2.261-5.858,7.032-6.166,10.157a41.012,41.012,0,0,0,11.341-6.429,38.786,38.786,0,0,0,3.033-2.806,40.567,40.567,0,0,1-13.512,10.485c3.763,1.109,8.151.036,11.649-2.44a19.824,19.824,0,0,0,7.283-12.234,11.554,11.554,0,0,0-2.986-.374,19.273,19.273,0,0,0-10.644,3.641m-204.278-2.39c-.544,3.879,1.108,9.087,3.173,11.452a41.011,41.011,0,0,0,3.086-12.665,38.079,38.079,0,0,0,.036-4.134,40.533,40.533,0,0,1-1.621,17.029c3.387-1.982,5.611-5.912,6.206-10.157a19.819,19.819,0,0,0-3.922-13.686c-3.728,2.3-6.278,7.294-6.958,12.161M209.733,117.8c.594,4.245,2.819,8.175,6.206,10.157a40.562,40.562,0,0,1-1.623-17.029,38.958,38.958,0,0,0,.036,4.134,41.013,41.013,0,0,0,3.088,12.665c2.065-2.365,3.716-7.573,3.173-11.452-.682-4.868-3.231-9.863-6.958-12.161a19.811,19.811,0,0,0-3.922,13.686M.107,88.49a19.058,19.058,0,0,0,3.8,13.151c2.652,3.153,6.472,5.216,10.245,5.1A38.975,38.975,0,0,1,4.129,93.7a36.79,36.79,0,0,0,2.144,3.35,39.473,39.473,0,0,0,8.986,8.736c.475-2.982-.842-8.068-3.268-10.948C8.966,91.245,4.372,88.49.18,88.49H.107M232.776,94.84a16,16,0,0,0-3.268,10.948,39.4,39.4,0,0,0,8.986-8.736,36.425,36.425,0,0,0,2.144-3.35,38.992,38.992,0,0,1-10.024,13.041c3.772.116,7.591-1.948,10.245-5.1a19.058,19.058,0,0,0,3.8-13.151h-.073c-4.192,0-8.786,2.754-11.812,6.349M21.1,94.147c-1.2,3.568-.57,8.784.96,11.387A39.49,39.49,0,0,0,27.23,94.116a37.018,37.018,0,0,0,.769-3.9,38.99,38.99,0,0,1-4.563,15.8c3.554-1.271,6.355-4.589,7.671-8.491a19.062,19.062,0,0,0-1.269-13.633c-3.932,1.511-7.229,5.776-8.74,10.254m192.561,3.379c1.317,3.9,4.119,7.22,7.673,8.491a39.018,39.018,0,0,1-4.565-15.8,36.6,36.6,0,0,0,.771,3.9,39.531,39.531,0,0,0,5.17,11.418,16.018,16.018,0,0,0,.961-11.387c-1.512-4.478-4.81-8.743-8.74-10.254a19.062,19.062,0,0,0-1.271,13.633M21.326,71.853a15.369,15.369,0,0,0-1.72,10.834,37.872,37.872,0,0,0,7.443-9.454,35.038,35.038,0,0,0,1.613-3.457,37.433,37.433,0,0,1-7.884,13.68c3.605-.369,6.977-2.817,9.1-6.154a18.307,18.307,0,0,0,1.948-13c-4.013.5-8.066,3.723-10.5,7.549M214.886,77.3c2.127,3.336,5.5,5.785,9.1,6.154a37.385,37.385,0,0,1-7.884-13.68,35.024,35.024,0,0,0,1.611,3.457,37.911,37.911,0,0,0,7.443,9.454,15.36,15.36,0,0,0-1.72-10.834c-2.436-3.826-6.491-7.045-10.5-7.549a18.3,18.3,0,0,0,1.948,13M3.175,75.383c1.9,3.469,5.109,6.132,8.682,6.734A37.442,37.442,0,0,1,4.879,67.953a35.678,35.678,0,0,0,1.387,3.556,37.921,37.921,0,0,0,6.809,9.919,15.35,15.35,0,0,0-1.011-10.923c-2.181-3.978-6.018-7.455-9.989-8.217a18.3,18.3,0,0,0,1.1,13.1M232.7,70.505a15.368,15.368,0,0,0-1.011,10.923,37.886,37.886,0,0,0,6.81-9.919,35.657,35.657,0,0,0,1.385-3.556,37.438,37.438,0,0,1-6.975,14.164c3.573-.6,6.778-3.265,8.682-6.734a18.3,18.3,0,0,0,1.1-13.1c-3.971.762-7.807,4.24-9.989,8.217M26.929,52.132a14.72,14.72,0,0,0-4.437,9.529,36.248,36.248,0,0,0,9.347-6.751,33.024,33.024,0,0,0,2.4-2.763A35.84,35.84,0,0,1,23.37,62.679,12.307,12.307,0,0,0,33.377,59.4,17.534,17.534,0,0,0,38.595,47.94a9.464,9.464,0,0,0-1.448-.107,16.357,16.357,0,0,0-10.218,4.3M206.172,47.94a17.535,17.535,0,0,0,5.22,11.464A12.3,12.3,0,0,0,221.4,62.679a35.834,35.834,0,0,1-10.863-10.531,33.023,33.023,0,0,0,2.4,2.763,36.219,36.219,0,0,0,9.347,6.751,14.722,14.722,0,0,0-4.439-9.529,16.353,16.353,0,0,0-10.218-4.3,9.464,9.464,0,0,0-1.448.107M8.3,51.192a12.306,12.306,0,0,0,7.367,7.522,35.863,35.863,0,0,1-4.779-14.356,33.879,33.879,0,0,0,.851,3.556,36.274,36.274,0,0,0,5.177,10.3,14.714,14.714,0,0,0,.459-10.5c-1.553-4.061-4.743-7.86-8.413-9.1A17.528,17.528,0,0,0,8.3,51.192m219.083-3.476a14.713,14.713,0,0,0,.461,10.5,36.318,36.318,0,0,0,5.177-10.3,33.888,33.888,0,0,0,.851-3.556A35.84,35.84,0,0,1,229.1,58.713a12.308,12.308,0,0,0,7.368-7.522,17.537,17.537,0,0,0-.662-12.578c-3.672,1.242-6.86,5.041-8.415,9.1M35.182,34.457a14.077,14.077,0,0,0-5.876,8.16A34.776,34.776,0,0,0,39.3,37.945a32.3,32.3,0,0,0,2.744-2.166,34.3,34.3,0,0,1-12.095,7.949,11.771,11.771,0,0,0,9.99-1.285,16.772,16.772,0,0,0,6.955-9.837,10.281,10.281,0,0,0-3.433-.55,16.732,16.732,0,0,0-8.279,2.4m162.691-1.851a16.767,16.767,0,0,0,6.957,9.837,11.771,11.771,0,0,0,9.99,1.285,34.27,34.27,0,0,1-12.095-7.949,32.3,32.3,0,0,0,2.744,2.166,34.788,34.788,0,0,0,9.992,4.672,14.07,14.07,0,0,0-5.876-8.16,16.721,16.721,0,0,0-8.277-2.4,10.284,10.284,0,0,0-3.435.55M17.585,30.425a11.764,11.764,0,0,0,5.267,8.583,34.285,34.285,0,0,1-1.4-14.405,31.98,31.98,0,0,0,.037,3.5,34.638,34.638,0,0,0,2.632,10.712,14.106,14.106,0,0,0,2.668-9.694C26.206,25,24.04,20.777,20.882,18.837a16.765,16.765,0,0,0-3.3,11.588m200.392-1.307a14.1,14.1,0,0,0,2.668,9.694A34.638,34.638,0,0,0,223.277,28.1a32.847,32.847,0,0,0,.037-3.5,34.258,34.258,0,0,1-1.4,14.405,11.764,11.764,0,0,0,5.267-8.583,16.764,16.764,0,0,0-3.3-11.588c-3.158,1.94-5.324,6.162-5.909,10.281M43.347,20.11a13.438,13.438,0,0,0-6.206,7.321A33.141,33.141,0,0,0,47,23.741a31.506,31.506,0,0,0,2.777-1.853,32.758,32.758,0,0,1-12.108,6.649,11.233,11.233,0,0,0,9.6-.468,16.005,16.005,0,0,0,7.358-8.835,10.366,10.366,0,0,0-4.23-.822,16.357,16.357,0,0,0-7.054,1.7m146.79-.876a16.015,16.015,0,0,0,7.36,8.835,11.233,11.233,0,0,0,9.6.468,32.757,32.757,0,0,1-12.108-6.649,31.228,31.228,0,0,0,2.775,1.853,33.159,33.159,0,0,0,9.861,3.69,13.442,13.442,0,0,0-6.2-7.321,16.364,16.364,0,0,0-7.055-1.7,10.366,10.366,0,0,0-4.23.822m29.156,24.933A107.163,107.163,0,0,1,224.454,60.3a110.706,110.706,0,0,1,2.64,16.721,118.963,118.963,0,0,1,.133,16.918,121.293,121.293,0,0,1-2.29,16.757,109.508,109.508,0,0,1-11.625,31.594,106.549,106.549,0,0,1-9.425,13.977,113.669,113.669,0,0,1-11.5,12.318,116.786,116.786,0,0,1-27.773,18.909c-2.52,1.245-5.1,2.363-7.693,3.428-2.61,1.024-5.24,2.011-7.92,2.84-1.33.449-2.685.806-4.029,1.208q-2.057.577-4.107,1.2c-2.729.846-5.434,1.788-8.095,2.862a71.562,71.562,0,0,0-10.385,5.138A71.437,71.437,0,0,0,112,199.031c-2.663-1.074-5.366-2.016-8.095-2.862-1.364-.42-2.737-.818-4.109-1.2-1.342-.4-2.7-.759-4.027-1.208-2.68-.829-5.31-1.815-7.921-2.84-2.6-1.065-5.172-2.183-7.692-3.428a116.841,116.841,0,0,1-27.774-18.909,113.654,113.654,0,0,1-11.5-12.318,106.55,106.55,0,0,1-9.425-13.977,109.407,109.407,0,0,1-11.625-31.594,121.291,121.291,0,0,1-2.29-16.757,118.718,118.718,0,0,1,.133-16.918A110.71,110.71,0,0,1,20.314,60.3a106.973,106.973,0,0,1,5.162-16.132,110.622,110.622,0,0,1,17.495-28.94A110.748,110.748,0,0,0,25.176,44.043a107.411,107.411,0,0,0-5.337,16.142,111.726,111.726,0,0,0-2.816,16.779,119.443,119.443,0,0,0-.3,17.024,122.052,122.052,0,0,0,2.145,16.9,110.692,110.692,0,0,0,11.442,32.033,108.08,108.08,0,0,0,9.415,14.252,115.024,115.024,0,0,0,11.544,12.605,118.632,118.632,0,0,0,28.016,19.47c2.547,1.288,5.157,2.452,7.789,3.559,2.647,1.068,5.315,2.1,8.037,2.972,1.351.468,2.731.849,4.1,1.271,1.351.393,2.695.8,4.03,1.223,2.673.854,5.312,1.8,7.893,2.874a70.831,70.831,0,0,1,9,4.458c-.839.565-1.667,1.145-2.475,1.758a53.618,53.618,0,0,0-6.47,5.79c-2,2.089-3.833,4.311-5.592,6.552l2.062,1.606c1.715-2.229,3.471-4.4,5.368-6.416a51.009,51.009,0,0,1,6.123-5.585c1.045-.812,2.127-1.577,3.231-2.3,1.108.726,2.19,1.492,3.234,2.3a51.14,51.14,0,0,1,6.123,5.585c1.9,2.02,3.653,4.187,5.368,6.416l2.062-1.606c-1.759-2.241-3.593-4.463-5.594-6.552a53.734,53.734,0,0,0-6.469-5.79c-.808-.612-1.638-1.193-2.475-1.758a70.722,70.722,0,0,1,9-4.458c2.579-1.072,5.22-2.019,7.891-2.874,1.337-.427,2.681-.83,4.032-1.223,1.366-.422,2.746-.8,4.1-1.271,2.722-.871,5.39-1.9,8.039-2.972,2.632-1.108,5.24-2.271,7.789-3.559a118.724,118.724,0,0,0,28.016-19.47,114.839,114.839,0,0,0,11.542-12.605,107.742,107.742,0,0,0,9.415-14.252,110.592,110.592,0,0,0,11.441-32.033,122.055,122.055,0,0,0,2.147-16.9,119.944,119.944,0,0,0-.3-17.024,111.51,111.51,0,0,0-2.817-16.779,107.215,107.215,0,0,0-5.335-16.142A110.794,110.794,0,0,0,201.8,15.227a110.621,110.621,0,0,1,17.495,28.94M29.3,14.077A11.242,11.242,0,0,0,32.45,23.16,32.766,32.766,0,0,1,34.095,9.442a31.036,31.036,0,0,0-.681,3.268,33.172,33.172,0,0,0,.26,10.524,13.451,13.451,0,0,0,4.471-8.491c.3-3.959-.854-8.338-3.4-10.8A16.005,16.005,0,0,0,29.3,14.077m177.322.667a13.444,13.444,0,0,0,4.473,8.491,33.171,33.171,0,0,0,.26-10.524,31.044,31.044,0,0,0-.682-3.268,32.766,32.766,0,0,1,1.645,13.718,11.243,11.243,0,0,0,3.153-9.083,16.007,16.007,0,0,0-5.446-10.128c-2.547,2.457-3.7,6.836-3.4,10.8M46,4.757a12.687,12.687,0,0,0-2.846,8.6,31.283,31.283,0,0,0,7.326-6.713,29.012,29.012,0,0,0,1.776-2.6,30.923,30.923,0,0,1-8.25,10.1,10.611,10.611,0,0,0,8.24-3.8A15.116,15.116,0,0,0,55.572.005Q55.43,0,55.287,0C52.025,0,48.43,2.042,46,4.757M189.194.005a15.116,15.116,0,0,0,3.323,10.334,10.614,10.614,0,0,0,8.241,3.8,30.95,30.95,0,0,1-8.252-10.1,29.372,29.372,0,0,0,1.776,2.6,31.325,31.325,0,0,0,7.328,6.713,12.7,12.7,0,0,0-2.848-8.6C196.336,2.042,192.743,0,189.48,0q-.143,0-.286.005" transform="translate(0)" fill="url(#linear-gradient)"/>
      </g>
    </g>
  </g>
</svg>
