<svg xmlns="http://www.w3.org/2000/svg" xmlns:xlink="http://www.w3.org/1999/xlink" width="1367.848" height="575.298" viewBox="0 0 1367.848 575.298">
  <defs>
    <clipPath id="clip-path">
      <path id="Path_63519" data-name="Path 63519" d="M1435.687,3661.335l421.776-33.643s279.069,184.232,444.717-34.776c.448-.755,108.16-8.535,108.16-8.535l83.029,2.489s17.668.484,49.781-1.509,260.384-23.943,260.384-23.943l-.455,553.9H1436Z" transform="translate(-1436)" fill="#fff" stroke="#707070" stroke-width="1"/>
    </clipPath>
  </defs>
  <g id="Group_379" data-name="Group 379" transform="translate(0.313 -3565.702)">
    <g id="Mask_Group_6" data-name="Mask Group 6" transform="translate(0 4.284)" clip-path="url(#clip-path)">
      <g id="Group_377" data-name="Group 377" transform="translate(0 374)">
        <g id="Ellipse_56" data-name="Ellipse 56" transform="translate(409 2910)" fill="none" stroke="#fff" stroke-width="1" stroke-dasharray="3">
          <circle cx="274" cy="274" r="274" stroke="none"/>
          <circle cx="274" cy="274" r="273.5" fill="none"/>
        </g>
        <g id="Ellipse_57" data-name="Ellipse 57" transform="translate(325 2826)" fill="none" stroke="#fff" stroke-width="1" stroke-dasharray="3">
          <circle cx="358" cy="358" r="358" stroke="none"/>
          <circle cx="358" cy="358" r="357.5" fill="none"/>
        </g>
        <g id="Ellipse_58" data-name="Ellipse 58" transform="translate(231 2732)" fill="none" stroke="#fff" stroke-width="1" stroke-dasharray="3">
          <circle cx="452" cy="452" r="452" stroke="none"/>
          <circle cx="452" cy="452" r="451.5" fill="none"/>
        </g>
        <g id="Ellipse_59" data-name="Ellipse 59" transform="translate(134 2635)" fill="none" stroke="#fff" stroke-width="1" stroke-dasharray="3">
          <circle cx="549" cy="549" r="549" stroke="none"/>
          <circle cx="549" cy="549" r="548.5" fill="none"/>
        </g>
      </g>
    </g>
    <g id="Ellipse_69" data-name="Ellipse 69" transform="translate(376 3890)" fill="#8a793e" stroke="#fff" stroke-width="1.5">
      <circle cx="10" cy="10" r="10" stroke="none"/>
      <circle cx="10" cy="10" r="9.25" fill="none"/>
    </g>
    <g id="Ellipse_60" data-name="Ellipse 60" transform="translate(438 3692)" fill="#8a793e" stroke="#fff" stroke-width="1.5">
      <circle cx="10" cy="10" r="10" stroke="none"/>
      <circle cx="10" cy="10" r="9.25" fill="none"/>
    </g>
    <g id="Ellipse_62" data-name="Ellipse 62" transform="translate(750 3901)" fill="#8a793e" stroke="#fff" stroke-width="1.5">
      <circle cx="10" cy="10" r="10" stroke="none"/>
      <circle cx="10" cy="10" r="9.25" fill="none"/>
    </g>
    <g id="Ellipse_64" data-name="Ellipse 64" transform="translate(589 4096)" fill="#8a793e" stroke="#fff" stroke-width="1.5">
      <circle cx="10" cy="10" r="10" stroke="none"/>
      <circle cx="10" cy="10" r="9.25" fill="none"/>
    </g>
    <g id="Ellipse_63" data-name="Ellipse 63" transform="translate(942 3914)" fill="#8a793e" stroke="#fff" stroke-width="1.5">
      <circle cx="10" cy="10" r="10" stroke="none"/>
      <circle cx="10" cy="10" r="9.25" fill="none"/>
    </g>
    <g id="Ellipse_61" data-name="Ellipse 61" transform="translate(1008 3677)" fill="#8a793e" stroke="#fff" stroke-width="1.5">
      <circle cx="10" cy="10" r="10" stroke="none"/>
      <circle cx="10" cy="10" r="9.25" fill="none"/>
    </g>
    <text id="Indira_Gandhi_Pratishthan" data-name="Indira Gandhi
Pratishthan" transform="translate(357 3745)" fill="#fff" font-size="16" font-family="Avenir-Heavy, Avenir" font-weight="800"><tspan x="0" y="0">Indira Gandhi</tspan><tspan x="0" y="22">Pratishthan</tspan></text>
    <text id="Hazratganj" transform="translate(250 3920)" fill="#fff" font-size="16" font-family="Avenir-Heavy, Avenir" font-weight="800"><tspan x="0" y="0">Hazratganj</tspan></text>
    <text id="Fun_Mall" data-name="Fun Mall" transform="translate(632 3939)" fill="#fff" font-size="16" font-family="Avenir-Heavy, Avenir" font-weight="800"><tspan x="0" y="0">Fun Mall</tspan></text>
    <text id="Dr._Ram_Manohar_Lohia_Hospital" data-name="Dr. Ram Manohar
Lohia Hospital" transform="translate(1042 3707)" fill="#fff" font-size="16" font-family="Avenir-Heavy, Avenir" font-weight="800"><tspan x="0" y="0">Dr. Ram Manohar</tspan><tspan x="0" y="22">Lohia Hospital</tspan></text>
    <text id="Charbagh_Railway_Station" data-name="Charbagh Railway
Station" transform="translate(971 3944)" fill="#fff" font-size="16" font-family="Avenir-Heavy, Avenir" font-weight="800"><tspan x="0" y="0">Charbagh Railway</tspan><tspan x="0" y="22">Station</tspan></text>
    <text id="CCS_International_Airport" data-name="CCS International Airport" transform="translate(623 4135)" fill="#fff" font-size="16" font-family="Avenir-Heavy, Avenir" font-weight="800"><tspan x="0" y="0">CCS International Airport</tspan></text>
    <text id="_0_Km" data-name="0 Km" transform="translate(355 3715)" fill="#fff" font-size="56" font-family="Avenir-Medium, Avenir" font-weight="500"><tspan x="0" y="0">0</tspan><tspan y="0" xml:space="preserve" font-size="16" font-family="Avenir-Heavy, Avenir" font-weight="800"> Km</tspan></text>
    <text id="_8.5_Km" data-name="8.5 Km" transform="translate(248 3890)" fill="#fff" font-size="56" font-family="Avenir-Medium, Avenir" font-weight="500"><tspan x="0" y="0">8.5</tspan><tspan y="0" xml:space="preserve" font-size="16" font-family="Avenir-Heavy, Avenir" font-weight="800"> Km</tspan></text>
    <text id="_4.1_Km" data-name="4.1 Km" transform="translate(632 3914)" fill="#fff" font-size="56" font-family="Avenir-Medium, Avenir" font-weight="500"><tspan x="0" y="0">4.1</tspan><tspan y="0" xml:space="preserve" font-size="16" font-family="Avenir-Heavy, Avenir" font-weight="800"> Km</tspan></text>
    <text id="_1.1_Km" data-name="1.1 Km" transform="translate(1038 3677)" fill="#fff" font-size="56" font-family="Avenir-Medium, Avenir" font-weight="500"><tspan x="0" y="0">1.1</tspan><tspan y="0" xml:space="preserve" font-size="16" font-family="Avenir-Heavy, Avenir" font-weight="800"> Km</tspan></text>
    <text id="_11.9_Km" data-name="11.9 Km" transform="translate(969 3914)" fill="#fff" font-size="56" font-family="Avenir-Medium, Avenir" font-weight="500"><tspan x="0" y="0">11.9</tspan><tspan y="0" xml:space="preserve" font-size="16" font-family="Avenir-Heavy, Avenir" font-weight="800"> Km</tspan></text>
    <text id="_24.2_Km" data-name="24.2 Km" transform="translate(621 4105)" fill="#fff" font-size="56" font-family="Avenir-Medium, Avenir" font-weight="500"><tspan x="0" y="0">24.2</tspan><tspan y="0" xml:space="preserve" font-size="16" font-family="Avenir-Heavy, Avenir" font-weight="800"> Km</tspan></text>
  </g>
</svg>
