<svg xmlns="http://www.w3.org/2000/svg" xmlns:xlink="http://www.w3.org/1999/xlink" width="147.633" height="47.139" viewBox="0 0 147.633 47.139">
  <defs>
    <clipPath id="clip-path">
      <rect id="Rectangle_392" data-name="Rectangle 392" width="147.633" height="47.139" transform="translate(0 0)" fill="none"/>
    </clipPath>
  </defs>
  <g id="Group_383" data-name="Group 383" transform="translate(0 0)">
    <g id="Group_382" data-name="Group 382" transform="translate(0 0)" clip-path="url(#clip-path)">
      <path id="Path_63520" data-name="Path 63520" d="M15.58,40.135c-2.306,0-.256,1.282-5.124,1.282s-5.062-3.588-5.062-3.588H15.58c2.05,0,2.719-.785,2.307-6.149-.257-3.331-3.588-7.431-7.688-7.431-1.794,0-5.125-.257-7.687,3.331A12,12,0,0,0,.205,34.755c0,6.15,3.331,11.787,9.993,11.787s7.944-3.075,7.944-3.844a2.354,2.354,0,0,0-2.563-2.562M9.358,29.062c3.258,0,4.027,3.642,4.027,3.642H5.33s.769-3.642,4.027-3.642" transform="translate(-0.102 -12.511)" fill="#8a6b20"/>
      <path id="Path_63521" data-name="Path 63521" d="M15.58,40.135c-2.306,0-.256,1.282-5.124,1.282s-5.062-3.588-5.062-3.588H15.58c2.05,0,2.719-.785,2.307-6.149-.257-3.331-3.588-7.431-7.688-7.431-1.794,0-5.125-.257-7.687,3.331A12,12,0,0,0,.205,34.755c0,6.15,3.331,11.787,9.993,11.787s7.944-3.075,7.944-3.844A2.354,2.354,0,0,0,15.58,40.135ZM9.358,29.062c3.258,0,4.027,3.642,4.027,3.642H5.33S6.1,29.062,9.358,29.062Z" transform="translate(-0.102 -12.511)" fill="none" stroke="#8a6b20" stroke-width="0.396"/>
      <path id="Path_63522" data-name="Path 63522" d="M179.177,40.135c-2.306,0-.257,1.282-5.125,1.282s-5.062-3.588-5.062-3.588h10.187c2.05,0,3.067-.822,2.306-6.149-.513-3.587-3.588-7.431-7.687-7.431-1.794,0-5.125-.257-7.688,3.331a12,12,0,0,0-2.306,7.175c0,6.15,3.331,11.787,9.994,11.787s7.943-3.075,7.943-3.844a2.354,2.354,0,0,0-2.562-2.562m-6.223-11.073c3.259,0,4.027,3.642,4.027,3.642h-8.054s.769-3.642,4.027-3.642" transform="translate(-84.521 -12.511)" fill="#8a6b20"/>
      <path id="Path_63523" data-name="Path 63523" d="M63.853,16.607,56.422,9.176a4.027,4.027,0,0,0-5.893.256c-3.075,3.075-.769,5.637,1.794,8.2S63.853,29.225,63.853,29.225L86.4,6.613S88.2,4.307,85.378,1.488a4.465,4.465,0,0,0-6.406-.256C77.818,2.386,63.853,16.607,63.853,16.607" transform="translate(-25.314 0)" fill="#8a6b20"/>
      <path id="Path_63524" data-name="Path 63524" d="M46.7,52.313l6.15,6.406L39.782,71.787a4.312,4.312,0,0,1-5.893-.512c-2.947-2.947.513-6.919.513-6.919Z" transform="translate(-16.873 -26.995)" fill="#fff"/>
      <path id="Path_63525" data-name="Path 63525" d="M84.924,58.72l6.265-6.406L96.2,57.695s2.307,3.075-.512,5.637a4.187,4.187,0,0,1-5.893.256L84.924,58.72" transform="translate(-43.822 -26.995)" fill="#8a6b20"/>
      <path id="Path_63526" data-name="Path 63526" d="M138.621,33.256c-.641-3.972-3.587-7.944-8.2-7.944-3.716,0-5.125.769-7.175,2.819-1.794,1.794-1.794,6.05-1.794,6.05V52.73s-.128,2.69,2.434,2.69c2.306,0,2.05-2.69,2.05-2.69V45.939c4.1,1.794,7.215,1.065,9.866-1.586,3.318-3.319,3.267-8.316,2.818-11.1m-8.712,9.225c-2.547,0-4.612-2.869-4.612-6.406s2.065-6.406,4.612-6.406,4.612,2.868,4.612,6.406-2.065,6.406-4.612,6.406" transform="translate(-62.671 -13.062)" fill="#8a6b20"/>
      <path id="Path_63527" data-name="Path 63527" d="M138.621,33.256c-.641-3.972-3.587-7.944-8.2-7.944-3.716,0-5.125.769-7.175,2.819-1.794,1.794-1.794,6.05-1.794,6.05V52.73s-.128,2.69,2.434,2.69c2.306,0,2.05-2.69,2.05-2.69V45.939c4.1,1.794,7.215,1.065,9.866-1.586C139.121,41.035,139.07,36.038,138.621,33.256Zm-8.712,9.225c-2.547,0-4.612-2.869-4.612-6.406s2.065-6.406,4.612-6.406,4.612,2.868,4.612,6.406S132.456,42.48,129.909,42.48Z" transform="translate(-62.671 -13.062)" fill="none" stroke="#8a6b20" stroke-width="1.585"/>
      <path id="Path_63528" data-name="Path 63528" d="M212.9,44.5V33.074a3.509,3.509,0,0,1,3.843-3.44c3.844,0,3.332,3.331,5.894,3.331s2.785-1.551,2.562-3.331c-.256-2.05-3.587-5.381-7.944-5.381s-8.968,3.331-8.968,8.2V44.5a2.322,2.322,0,0,0,4.612,0" transform="translate(-107.478 -12.515)" fill="#8a6b20"/>
      <path id="Path_63529" data-name="Path 63529" d="M212.9,44.5V33.074a3.509,3.509,0,0,1,3.843-3.44c3.844,0,3.332,3.331,5.894,3.331s2.785-1.551,2.562-3.331c-.256-2.05-3.587-5.381-7.944-5.381s-8.968,3.331-8.968,8.2V44.5a2.322,2.322,0,0,0,4.612,0Z" transform="translate(-107.478 -12.515)" fill="none" stroke="#8a6b20" stroke-width="0.792"/>
      <path id="Path_63530" data-name="Path 63530" d="M250.425,46.546h0a2.442,2.442,0,0,1-2.434-2.434V26.687a2.434,2.434,0,1,1,4.869,0V44.112a2.442,2.442,0,0,1-2.434,2.434" transform="translate(-127.968 -12.515)" fill="#8a6b20"/>
      <path id="Path_63531" data-name="Path 63531" d="M250.425,46.546h0a2.442,2.442,0,0,1-2.434-2.434V26.687a2.434,2.434,0,1,1,4.869,0V44.112A2.442,2.442,0,0,1,250.425,46.546Z" transform="translate(-127.968 -12.515)" fill="none" stroke="#8a6b20" stroke-width="0.792"/>
      <path id="Path_63532" data-name="Path 63532" d="M252.843,8.942a2.69,2.69,0,1,1-2.69-2.69,2.691,2.691,0,0,1,2.69,2.69" transform="translate(-127.695 -3.226)" fill="#77632a"/>
      <path id="Path_63533" data-name="Path 63533" d="M275.345,24.253c-5.166,0-9.352,4.99-9.352,11.147s4.187,11.147,9.352,11.147S284.7,41.555,284.7,35.4s-4.187-11.147-9.353-11.147m.128,17.937c-2.83,0-5.125-2.925-5.125-6.534s2.295-6.534,5.125-6.534,5.125,2.925,5.125,6.534-2.295,6.534-5.125,6.534" transform="translate(-137.257 -12.515)" fill="#8a6b20"/>
      <path id="Path_63534" data-name="Path 63534" d="M275.345,24.253c-5.166,0-9.352,4.99-9.352,11.147s4.187,11.147,9.352,11.147S284.7,41.555,284.7,35.4,280.511,24.253,275.345,24.253Zm.128,17.937c-2.83,0-5.125-2.925-5.125-6.534s2.295-6.534,5.125-6.534,5.125,2.925,5.125,6.534S278.3,42.19,275.474,42.19Z" transform="translate(-137.257 -12.515)" fill="none" stroke="#8a6b20" stroke-width="0.792"/>
      <path id="Path_63535" data-name="Path 63535" d="M79.342,34.025l-.242-.242s.083.091.242.242" transform="translate(-40.817 -17.433)" fill="#fff"/>
      <path id="Path_63536" data-name="Path 63536" d="M94.748,1.232C93.6,2.385,79.649,16.587,79.63,16.607a9.019,9.019,0,0,0,11.53,1.025l.09-.059L102.179,6.613s1.794-2.306-1.025-5.125a4.465,4.465,0,0,0-6.406-.256" transform="translate(-41.09 0)" fill="#fff"/>
      <path id="Path_63537" data-name="Path 63537" d="M148.309,82.705q.391,0,.66-.519a2.753,2.753,0,0,0,.268-1.272,2.715,2.715,0,0,0-.608-1.846,2.027,2.027,0,0,0-1.61-.7,2.108,2.108,0,0,0-1.729.848,3.881,3.881,0,0,0,0,4.366,2.113,2.113,0,0,0,1.734.848,2.359,2.359,0,0,0,1.065-.248,1.784,1.784,0,0,0,.746-.65h.779a2.98,2.98,0,0,1-1.049,1.225,2.571,2.571,0,0,1-1.462.467,3,3,0,0,1-2.362-1.117,4.042,4.042,0,0,1-.963-2.734,4.126,4.126,0,0,1,.928-2.732,2.849,2.849,0,0,1,2.268-1.114,2.784,2.784,0,0,1,2.094.893,3.043,3.043,0,0,1,.853,2.183,3.574,3.574,0,0,1-.63,2.124,1.82,1.82,0,0,1-1.5.888.4.4,0,0,1-.372-.268,1.078,1.078,0,0,1-.08-.3l-.01.01a1.075,1.075,0,0,1-.863.561,1.147,1.147,0,0,1-.96-.518,2.173,2.173,0,0,1-.379-1.317,2.766,2.766,0,0,1,.516-1.7,1.533,1.533,0,0,1,1.265-.695.913.913,0,0,1,.893.581l.064.139.109-.575h.754l-.5,2.59a1.5,1.5,0,0,0-.04.444q.02.136.119.136m-1.315-2.342a.843.843,0,0,0-.71.4,1.676,1.676,0,0,0-.283,1,1,1,0,0,0,.184.625.6.6,0,0,0,.5.224.733.733,0,0,0,.588-.286,1.839,1.839,0,0,0,.34-.836,1.138,1.138,0,0,0-.1-.784.571.571,0,0,0-.518-.337" transform="translate(-74.192 -40.007)" fill="#fff"/>
      <path id="Path_63538" data-name="Path 63538" d="M164.621,85.254V77.96h4.426v1.3h-3.171v1.528h2.9v1.3h-2.9v1.88h3.285v1.3Z" transform="translate(-84.947 -40.229)" fill="#fff"/>
      <path id="Path_63539" data-name="Path 63539" d="M176.561,84.516l-1.429-2.64h1.411l.751,1.564.732-1.564h1.369l-1.459,2.664,1.509,2.734h-1.422l-.758-1.6-.8,1.6h-1.4Z" transform="translate(-90.333 -42.25)" fill="#fff"/>
      <path id="Path_63540" data-name="Path 63540" d="M185.444,81.723h1.106v.794l.1-.159a1.491,1.491,0,0,1,2.615-.01,4.706,4.706,0,0,1,0,4.151,1.5,1.5,0,0,1-2.613.007l-.04-.064v2.794h-1.166Zm2.114,4.386a.816.816,0,0,0,.744-.422,2.42,2.42,0,0,0,.253-1.23,2.447,2.447,0,0,0-.253-1.238.855.855,0,0,0-1.476,0,3.169,3.169,0,0,0,0,2.471.8.8,0,0,0,.732.422" transform="translate(-95.692 -42.096)" fill="#fff"/>
      <path id="Path_63541" data-name="Path 63541" d="M197.563,87.265a2.005,2.005,0,0,1-1.7-.737,3.631,3.631,0,0,1-.571-2.215,3.194,3.194,0,0,1,.568-1.995,2.009,2.009,0,0,1,3.1-.012,3.543,3.543,0,0,1,.536,2.121l-.008.412h-3.018a2.089,2.089,0,0,0,.228.9.842.842,0,0,0,.784.4.744.744,0,0,0,.479-.156.7.7,0,0,0,.25-.424h1.246a2.243,2.243,0,0,1-.675,1.25,1.765,1.765,0,0,1-1.226.462m.724-3.354a1.718,1.718,0,0,0-.223-.814.76.76,0,0,0-.684-.367.742.742,0,0,0-.694.422,2.185,2.185,0,0,0-.2.759Z" transform="translate(-100.776 -42.096)" fill="#fff"/>
      <path id="Path_63542" data-name="Path 63542" d="M205.558,81.723h1.121v.948l.154-.328a1.2,1.2,0,0,1,1.057-.764,1.426,1.426,0,0,1,.248.02v1.444a2.015,2.015,0,0,0-.328-.025,1,1,0,0,0-.819.325,1.533,1.533,0,0,0-.268.99v2.788h-1.166Z" transform="translate(-106.071 -42.096)" fill="#fff"/>
      <path id="Path_63543" data-name="Path 63543" d="M212.366,79.781h1.166v5.4h-1.166Zm0-1.965h1.156v1.32h-1.156Z" transform="translate(-109.584 -40.155)" fill="#fff"/>
      <path id="Path_63544" data-name="Path 63544" d="M217.152,86.5a3.821,3.821,0,0,1,0-4.151,2.167,2.167,0,0,1,3.312,0,3.834,3.834,0,0,1,0,4.151,2.172,2.172,0,0,1-3.312,0m2.446-.844a2.279,2.279,0,0,0,.271-1.228,2.3,2.3,0,0,0-.271-1.236.954.954,0,0,0-1.583,0,2.309,2.309,0,0,0-.27,1.236,2.284,2.284,0,0,0,.27,1.228.957.957,0,0,0,1.583,0" transform="translate(-111.738 -42.096)" fill="#fff"/>
      <path id="Path_63545" data-name="Path 63545" d="M227.59,81.723H228.7v.829l.149-.263a1.377,1.377,0,0,1,1.211-.709,1.419,1.419,0,0,1,1.124.479,1.879,1.879,0,0,1,.419,1.283v3.781h-1.166V83.762a1.224,1.224,0,0,0-.191-.741.642.642,0,0,0-.548-.256.785.785,0,0,0-.7.364,1.916,1.916,0,0,0-.241,1.055v2.937H227.59Z" transform="translate(-117.44 -42.096)" fill="#fff"/>
      <path id="Path_63546" data-name="Path 63546" d="M247.872,82.557a3.252,3.252,0,0,1-.826,1.96,2.3,2.3,0,0,1-1.734.724,2.373,2.373,0,0,1-2.025-1.034,5.606,5.606,0,0,1,0-5.6,2.371,2.371,0,0,1,2.025-1.037,2.344,2.344,0,0,1,1.739.7,3.069,3.069,0,0,1,.821,1.9h-1.255a1.52,1.52,0,0,0-.417-.95,1.208,1.208,0,0,0-.888-.35,1.247,1.247,0,0,0-1.106.687,4.4,4.4,0,0,0,0,3.709,1.246,1.246,0,0,0,1.109.685,1.162,1.162,0,0,0,.883-.375,1.7,1.7,0,0,0,.422-1.014Z" transform="translate(-125.154 -40.028)" fill="#fff"/>
      <path id="Path_63547" data-name="Path 63547" d="M256.057,87.265a1.229,1.229,0,0,1-.985-.426,1.714,1.714,0,0,1-.365-1.151,1.85,1.85,0,0,1,.332-1.154,1.536,1.536,0,0,1,.968-.558l.913-.174a1.111,1.111,0,0,0,.442-.173.219.219,0,0,0,.074-.109.45.45,0,0,0,.03-.159v-.02a.555.555,0,0,0-.191-.464.919.919,0,0,0-.578-.151.661.661,0,0,0-.5.188.916.916,0,0,0-.223.556h-1.116A2.353,2.353,0,0,1,255.417,82a1.978,1.978,0,0,1,1.409-.424,1.907,1.907,0,0,1,1.315.417,1.5,1.5,0,0,1,.467,1.177v2.871a2.778,2.778,0,0,0,.049.643.363.363,0,0,0,.2.245v.189H257.6v0a3.116,3.116,0,0,1-.1-.65v-.005a1.655,1.655,0,0,1-1.434.8m1.409-2.148v-.59a.883.883,0,0,1-.337.149l-.417.1a1.442,1.442,0,0,0-.655.288.687.687,0,0,0-.179.516.785.785,0,0,0,.136.5.474.474,0,0,0,.394.171,1.01,1.01,0,0,0,.928-.556l.02-.03a.681.681,0,0,0,.075-.228,1.472,1.472,0,0,0,.035-.317" transform="translate(-131.433 -42.096)" fill="#fff"/>
      <path id="Path_63548" data-name="Path 63548" d="M264.846,81.723h1.107v.794l.1-.159a1.491,1.491,0,0,1,2.615-.01,4.706,4.706,0,0,1,0,4.151,1.5,1.5,0,0,1-2.613.007l-.04-.064v2.794h-1.167Zm2.115,4.386a.816.816,0,0,0,.744-.422,2.429,2.429,0,0,0,.253-1.23,2.457,2.457,0,0,0-.253-1.238.855.855,0,0,0-1.476,0,3.169,3.169,0,0,0,0,2.471.8.8,0,0,0,.732.422" transform="translate(-136.665 -42.096)" fill="#fff"/>
      <path id="Path_63549" data-name="Path 63549" d="M275.5,79.781h1.166v5.4H275.5Zm0-1.965h1.156v1.32H275.5Z" transform="translate(-142.163 -40.155)" fill="#fff"/>
      <path id="Path_63550" data-name="Path 63550" d="M281.743,85.765q-.293.025-.72.025a1.182,1.182,0,0,1-.886-.287,1.3,1.3,0,0,1-.275-.923V81.344h-.61V80.327h.61V78.873h1.166v1.454h.715v1.017h-.715v2.977a.379.379,0,0,0,.092.3.683.683,0,0,0,.385.072h.238Z" transform="translate(-144.099 -40.7)" fill="#fff"/>
      <path id="Path_63551" data-name="Path 63551" d="M286.67,87.265a1.227,1.227,0,0,1-.984-.426,1.712,1.712,0,0,1-.365-1.151,1.85,1.85,0,0,1,.332-1.154,1.533,1.533,0,0,1,.967-.558l.913-.174a1.109,1.109,0,0,0,.441-.173.216.216,0,0,0,.074-.109.45.45,0,0,0,.03-.159v-.02a.554.554,0,0,0-.191-.464.919.919,0,0,0-.578-.151.659.659,0,0,0-.5.188.916.916,0,0,0-.224.556h-1.116A2.358,2.358,0,0,1,286.031,82a1.98,1.98,0,0,1,1.409-.424,1.908,1.908,0,0,1,1.315.417,1.5,1.5,0,0,1,.466,1.177v2.871a2.745,2.745,0,0,0,.05.643.362.362,0,0,0,.2.245v.189h-1.26v0a3.088,3.088,0,0,1-.1-.65v-.005a1.656,1.656,0,0,1-1.435.8m1.409-2.148v-.59a.88.88,0,0,1-.337.149l-.417.1a1.444,1.444,0,0,0-.655.288.687.687,0,0,0-.179.516.785.785,0,0,0,.136.5.475.475,0,0,0,.394.171,1.01,1.01,0,0,0,.928-.556l.02-.03a.669.669,0,0,0,.075-.228,1.5,1.5,0,0,0,.034-.317" transform="translate(-147.231 -42.096)" fill="#fff"/>
      <path id="Path_63552" data-name="Path 63552" d="M295.594,77.96h1.166v7.294h-1.166Z" transform="translate(-152.532 -40.229)" fill="#fff"/>
    </g>
  </g>
</svg>
